<svg width="573" height="85" viewBox="0 0 573 85" fill="none" xmlns="http://www.w3.org/2000/svg">
<path d="M0.100098 0.100098H54.0001V84.0001H0.100098V0.100098ZM49.9001 72.6001V10.6001H35.9001V45.2001L18.5001 10.6001H4.2001V72.6001H18.2001V38.0001L35.7001 72.6001H49.9001Z" fill="#5E6EC4"/>
<path d="M107.856 0.100098V84.0001H52.1556V0.100098H107.856ZM104.256 48.0001V33.4001C103.989 30.4668 103.256 27.7001 102.056 25.1001C100.856 22.5001 99.2556 20.1668 97.2556 18.1001C94.9889 15.7001 92.3889 13.8668 89.4556 12.6001C86.5222 11.2668 83.4556 10.6001 80.2556 10.6001H80.1556C76.8889 10.6001 73.7889 11.2668 70.8556 12.6001C67.9222 13.8668 65.3222 15.7001 63.0556 18.1001C61.0556 20.2334 59.4556 22.6001 58.2556 25.2001C57.1222 27.8001 56.4222 30.5668 56.1556 33.5001V48.0001C56.2222 51.2668 56.8222 54.4001 57.9556 57.4001C59.1556 60.3334 60.8556 62.9668 63.0556 65.3001C65.3889 67.6334 67.9889 69.4668 70.8556 70.8001C73.7889 72.0668 76.8889 72.7001 80.1556 72.7001H80.2556C83.4556 72.7001 86.5222 72.0668 89.4556 70.8001C92.3889 69.4668 94.9889 67.6334 97.2556 65.3001C99.4556 62.9668 101.156 60.3334 102.356 57.4001C103.556 54.4001 104.156 51.2668 104.156 48.0001H104.256Z" fill="#5E6EC4"/>
<path d="M105.755 0.200096H155.055V84.1001H105.755V0.200096ZM151.355 24.7001V10.7001H109.155V24.7001H123.255V72.7001H137.255V24.7001H151.355Z" fill="#5E6EC4"/>
<path d="M203.716 0.100098H267.116V84.0001H203.716V0.100098ZM248.916 72.6001H264.016L242.516 10.6001H227.216L205.716 72.6001H220.716L229.116 48.6001H240.616L248.916 72.6001Z" fill="#5E6EC4"/>
<path d="M320.13 0.100098V84.0001H265.53V0.100098H320.13ZM293.13 58.6001C291.73 58.6001 290.43 58.3334 289.23 57.8001C288.03 57.2001 286.963 56.4001 286.03 55.4001C285.163 54.4001 284.463 53.2668 283.93 52.0001C283.396 50.6668 283.13 49.2334 283.13 47.7001V35.5001C283.13 34.0334 283.396 32.6334 283.93 31.3001C284.463 29.9668 285.163 28.8001 286.03 27.8001C286.963 26.8001 288.03 26.0334 289.23 25.5001C290.43 24.9001 291.73 24.6001 293.13 24.6001C294.53 24.6001 295.83 24.9001 297.03 25.5001C298.296 26.0334 299.363 26.8001 300.23 27.8001C301.163 28.8001 301.896 29.9668 302.43 31.3001C302.963 32.6334 303.23 34.0334 303.23 35.5001H317.23C317.23 32.1668 316.63 29.0001 315.43 26.0001C314.23 23.0001 312.53 20.3334 310.33 18.0001C305.596 13.0668 299.896 10.6001 293.23 10.6001H293.13C286.463 10.6001 280.763 13.0668 276.03 18.0001C273.83 20.3334 272.13 23.0001 270.93 26.0001C269.796 28.9334 269.196 32.0334 269.13 35.3001V48.1001C269.196 51.3668 269.83 54.4668 271.03 57.4001C272.23 60.2668 273.896 62.8668 276.03 65.2001C280.763 70.1334 286.463 72.6001 293.13 72.6001H293.23C296.496 72.6001 299.563 71.9668 302.43 70.7001C305.363 69.4334 307.996 67.6001 310.33 65.2001C312.53 62.8668 314.23 60.2001 315.43 57.2001C316.63 54.2001 317.23 51.0334 317.23 47.7001H303.23C303.23 49.2334 302.963 50.6668 302.43 52.0001C301.896 53.2668 301.163 54.4001 300.23 55.4001C299.363 56.4001 298.296 57.2001 297.03 57.8001C295.83 58.3334 294.53 58.6001 293.13 58.6001Z" fill="#5E6EC4"/>
<path d="M318.059 0.200096H367.359V84.1001H318.059V0.200096ZM363.659 24.7001V10.7001H321.459V24.7001H335.559V72.7001H349.559V24.7001H363.659Z" fill="#5E6EC4"/>
<path d="M365.52 0.100098H389.42V84.0001H365.52V0.100098ZM384.32 72.6001V10.6001H370.32V72.6001H384.32Z" fill="#5E6EC4"/>
<path d="M387.993 0.100098H450.893V84.0001H387.993V0.100098ZM426.293 72.6001L447.793 10.6001H433.793L419.193 52.8001L404.593 10.6001H390.593L412.093 72.6001H426.293Z" fill="#5E6EC4"/>
<path d="M448.528 0.100098H472.428V84.0001H448.528V0.100098ZM467.328 72.6001V10.6001H453.328V72.6001H467.328Z" fill="#5E6EC4"/>
<path d="M470.501 0.200096H519.801V84.1001H470.501V0.200096ZM516.101 24.7001V10.7001H473.901V24.7001H488.001V72.7001H502.001V24.7001H516.101Z" fill="#5E6EC4"/>
<path d="M518.162 0.100098H572.962V84.0001H518.162V0.100098ZM552.462 41.7001L569.162 10.6001H555.162L545.462 28.6001L535.762 10.6001H521.762L538.462 41.6001V72.6001H552.462V41.7001Z" fill="#5E6EC4"/>
</svg>
